<svg xmlns:xlink="http://www.w3.org/1999/xlink" width="75ex" height="4.176ex" style="font-size: 15px; vertical-align: -1.505ex; max-width: 450;" viewBox="0 -1150.1 32291.5 1798" role="img" focusable="false" xmlns="http://www.w3.org/2000/svg">
<defs>
<path stroke-width="1" id="E1-MJMAIN-28" d="M94 250Q94 319 104 381T127 488T164 576T202 643T244 695T277 729T302 750H315H319Q333 750 333 741Q333 738 316 720T275 667T226 581T184 443T167 250T184 58T225 -81T274 -167T316 -220T333 -241Q333 -250 318 -250H315H302L274 -226Q180 -141 137 -14T94 250Z"></path>
<path stroke-width="1" id="E1-MJMAIN-35" d="M164 157Q164 133 148 117T109 101H102Q148 22 224 22Q294 22 326 82Q345 115 345 210Q345 313 318 349Q292 382 260 382H254Q176 382 136 314Q132 307 129 306T114 304Q97 304 95 310Q93 314 93 485V614Q93 664 98 664Q100 666 102 666Q103 666 123 658T178 642T253 634Q324 634 389 662Q397 666 402 666Q410 666 410 648V635Q328 538 205 538Q174 538 149 544L139 546V374Q158 388 169 396T205 412T256 420Q337 420 393 355T449 201Q449 109 385 44T229 -22Q148 -22 99 32T50 154Q50 178 61 192T84 210T107 214Q132 214 148 197T164 157Z"></path>
<path stroke-width="1" id="E1-MJMAIN-2E" d="M78 60Q78 84 95 102T138 120Q162 120 180 104T199 61Q199 36 182 18T139 0T96 17T78 60Z"></path>
<path stroke-width="1" id="E1-MJMAIN-32" d="M109 429Q82 429 66 447T50 491Q50 562 103 614T235 666Q326 666 387 610T449 465Q449 422 429 383T381 315T301 241Q265 210 201 149L142 93L218 92Q375 92 385 97Q392 99 409 186V189H449V186Q448 183 436 95T421 3V0H50V19V31Q50 38 56 46T86 81Q115 113 136 137Q145 147 170 174T204 211T233 244T261 278T284 308T305 340T320 369T333 401T340 431T343 464Q343 527 309 573T212 619Q179 619 154 602T119 569T109 550Q109 549 114 549Q132 549 151 535T170 489Q170 464 154 447T109 429Z"></path>
<path stroke-width="1" id="E1-MJMAIN-31" d="M213 578L200 573Q186 568 160 563T102 556H83V602H102Q149 604 189 617T245 641T273 663Q275 666 285 666Q294 666 302 660V361L303 61Q310 54 315 52T339 48T401 46H427V0H416Q395 3 257 3Q121 3 100 0H88V46H114Q136 46 152 46T177 47T193 50T201 52T207 57T213 61V578Z"></path>
<path stroke-width="1" id="E1-MJMAIN-29" d="M60 749L64 750Q69 750 74 750H86L114 726Q208 641 251 514T294 250Q294 182 284 119T261 12T224 -76T186 -143T145 -194T113 -227T90 -246Q87 -249 86 -250H74Q66 -250 63 -250T58 -247T55 -238Q56 -237 66 -225Q221 -64 221 250T66 725Q56 737 55 738Q55 746 60 749Z"></path>
<path stroke-width="1" id="E1-MJMAIN-25B3" d="M75 0L72 2Q69 3 67 5T62 11T59 20Q59 24 62 30Q65 37 245 370T428 707Q428 708 430 710T436 714T444 716Q451 716 455 712Q459 710 644 368L828 27V20Q828 7 814 0H75ZM610 347L444 653Q443 653 278 347T113 40H775Q775 42 610 347Z"></path>
<path stroke-width="1" id="E1-MJMAIN-2B" d="M56 237T56 250T70 270H369V420L370 570Q380 583 389 583Q402 583 409 568V270H707Q722 262 722 250T707 230H409V-68Q401 -82 391 -82H389H387Q375 -82 369 -68V230H70Q56 237 56 250Z"></path>
<path stroke-width="1" id="E1-MJMAIN-2190" d="M944 261T944 250T929 230H165Q167 228 182 216T211 189T244 152T277 96T303 25Q308 7 308 0Q308 -11 288 -11Q281 -11 278 -11T272 -7T267 2T263 21Q245 94 195 151T73 236Q58 242 55 247Q55 254 59 257T73 264Q121 283 158 314T215 375T247 434T264 480L267 497Q269 503 270 505T275 509T288 511Q308 511 308 500Q308 493 303 475Q293 438 278 406T246 352T215 315T185 287T165 270H929Q944 261 944 250Z"></path>
<path stroke-width="1" id="E1-MJMAIN-3D" d="M56 347Q56 360 70 367H707Q722 359 722 347Q722 336 708 328L390 327H72Q56 332 56 347ZM56 153Q56 168 72 173H708Q722 163 722 153Q722 140 707 133H70Q56 140 56 153Z"></path>
<path stroke-width="1" id="E1-MJMAIN-2212" d="M84 237T84 250T98 270H679Q694 262 694 250T679 230H98Q84 237 84 250Z"></path>
<path stroke-width="1" id="E1-MJMAIN-2C" d="M78 35T78 60T94 103T137 121Q165 121 187 96T210 8Q210 -27 201 -60T180 -117T154 -158T130 -185T117 -194Q113 -194 104 -185T95 -172Q95 -168 106 -156T131 -126T157 -76T173 -3V9L172 8Q170 7 167 6T161 3T152 1T140 0Q113 0 96 17Z"></path>
<path stroke-width="1" id="E1-MJMAIN-2192" d="M56 237T56 250T70 270H835Q719 357 692 493Q692 494 692 496T691 499Q691 511 708 511H711Q720 511 723 510T729 506T732 497T735 481T743 456Q765 389 816 336T935 261Q944 258 944 250Q944 244 939 241T915 231T877 212Q836 186 806 152T761 85T740 35T732 4Q730 -6 727 -8T711 -11Q691 -11 691 0Q691 7 696 25Q728 151 835 230H70Q56 237 56 250Z"></path>
</defs>
<g stroke="currentColor" fill="currentColor" stroke-width="0" transform="matrix(1 0 0 -1 0 0)">
<g transform="translate(28675,0)">
<g id="mjx-eqn-5.2.2.1" transform="translate(0,189)">
 <use xlink:href="#E1-MJMAIN-28"></use>
 <use xlink:href="#E1-MJMAIN-35" x="389" y="0"></use>
 <use xlink:href="#E1-MJMAIN-2E" x="890" y="0"></use>
 <use xlink:href="#E1-MJMAIN-32" x="1168" y="0"></use>
 <use xlink:href="#E1-MJMAIN-2E" x="1669" y="0"></use>
 <use xlink:href="#E1-MJMAIN-32" x="1947" y="0"></use>
 <use xlink:href="#E1-MJMAIN-2E" x="2448" y="0"></use>
 <use xlink:href="#E1-MJMAIN-31" x="2726" y="0"></use>
 <use xlink:href="#E1-MJMAIN-29" x="3227" y="0"></use>
</g>
</g>
<g transform="translate(9968,0)">
<g transform="translate(-11,0)">
<g transform="translate(0,189)">
 <use xlink:href="#E1-MJMAIN-25B3" x="0" y="0"></use>
 <use transform="scale(0.707)" xlink:href="#E1-MJMAIN-2B" x="1257" y="583"></use>
 <use xlink:href="#E1-MJMAIN-2190" x="269" y="-693"></use>
 <use xlink:href="#E1-MJMAIN-35" x="1984" y="0"></use>
 <use xlink:href="#E1-MJMAIN-3D" x="2762" y="0"></use>
 <use xlink:href="#E1-MJMAIN-2212" x="3818" y="0"></use>
 <use xlink:href="#E1-MJMAIN-35" x="4597" y="0"></use>
 <use xlink:href="#E1-MJMAIN-2C" x="5097" y="0"></use>
<g transform="translate(6543,0)">
 <use xlink:href="#E1-MJMAIN-25B3" x="0" y="0"></use>
 <use transform="scale(0.707)" xlink:href="#E1-MJMAIN-2212" x="1257" y="583"></use>
 <use xlink:href="#E1-MJMAIN-2192" x="269" y="-693"></use>
</g>
 <use xlink:href="#E1-MJMAIN-28" x="8527" y="0"></use>
 <use xlink:href="#E1-MJMAIN-2212" x="8917" y="0"></use>
 <use xlink:href="#E1-MJMAIN-32" x="9695" y="0"></use>
 <use xlink:href="#E1-MJMAIN-29" x="10196" y="0"></use>
 <use xlink:href="#E1-MJMAIN-3D" x="10863" y="0"></use>
<g transform="translate(11919,0)">
 <use xlink:href="#E1-MJMAIN-32"></use>
 <use xlink:href="#E1-MJMAIN-2E" x="500" y="0"></use>
</g>
</g>
</g>
</g>
</g>
</svg>